<svg xmlns="http://www.w3.org/2000/svg" xmlns:xlink="http://www.w3.org/1999/xlink" viewBox="0 0 140 30.435"><path d="M 21.294 24.103 L 3.094 11.549 C 1.25 10.277 1.877 7.628 4.177 7.005 L 23.52 1.755 C 24.351 1.455 25.276 1.575 26.004 2.076 C 26.732 2.578 27.173 3.4 27.188 4.283 L 26.042 22.087 C 25.906 24.2 23.139 25.376 21.294 24.103 Z" fill="rgb(233,50,124)"></path><path d="M 15.522 27.203 L 4.8 6.234 C 4.3 5.256 4.391 4.081 5.034 3.191 C 5.678 2.301 6.765 1.847 7.85 2.014 L 27.721 5.08 C 28.649 5.223 29.451 5.803 29.879 6.639 C 30.306 7.475 30.306 8.466 29.879 9.302 L 20.725 27.204 C 20.224 28.179 19.22 28.792 18.123 28.792 C 17.027 28.791 16.022 28.178 15.522 27.203 Z" fill="rgb(29,172,227)"></path><path d="M 27.14 4.989 L 17.234 3.46 L 5.072 6.763 L 9.927 16.259 L 21.294 24.103 C 21.545 24.275 21.822 24.406 22.112 24.492 L 26.43 16.048 Z M 77.313 7.44 C 77.313 6.412 78.147 5.579 79.175 5.579 C 80.203 5.579 81.037 6.412 81.037 7.44 C 81.037 8.468 80.203 9.302 79.175 9.302 C 78.151 9.291 77.324 8.464 77.313 7.44 Z M 77.624 10.212 L 80.727 10.212 L 80.727 20.554 L 77.624 20.554 Z M 94.129 15.383 C 94.202 16.763 93.721 18.116 92.793 19.141 C 91.865 20.166 90.567 20.779 89.186 20.844 C 88.021 20.907 86.89 20.444 86.104 19.582 L 86.104 24.691 L 83.002 24.691 L 83.002 10.212 L 86.104 10.212 L 86.104 11.184 C 86.89 10.322 88.022 9.859 89.186 9.923 C 90.567 9.987 91.865 10.6 92.793 11.625 C 93.721 12.65 94.202 14.002 94.129 15.383 Z M 91.026 15.383 C 90.992 14.031 89.875 12.96 88.524 12.983 C 87.172 13.006 86.091 14.114 86.103 15.465 C 86.114 16.817 87.213 17.907 88.565 17.907 C 89.238 17.937 89.892 17.679 90.362 17.197 C 90.832 16.714 91.074 16.054 91.026 15.383 Z M 103.704 17.449 C 103.704 19.828 101.636 20.842 99.403 20.842 C 97.556 21.009 95.794 20.034 94.956 18.38 L 97.644 16.85 C 97.869 17.62 98.602 18.127 99.402 18.067 C 100.147 18.067 100.518 17.839 100.518 17.426 C 100.518 16.288 95.43 16.888 95.43 13.309 C 95.43 11.055 97.332 9.918 99.488 9.918 C 101.135 9.865 102.68 10.713 103.521 12.13 L 100.874 13.558 C 100.638 13.003 100.092 12.643 99.488 12.645 C 98.951 12.645 98.62 12.848 98.62 13.224 C 98.617 14.411 103.704 13.625 103.704 17.449 Z M 115.043 10.212 L 115.043 20.554 L 111.941 20.554 L 111.941 19.58 C 111.214 20.45 110.114 20.919 108.983 20.842 C 106.894 20.842 105.116 19.352 105.116 16.56 L 105.116 10.212 L 108.218 10.212 L 108.218 16.107 C 108.164 16.606 108.334 17.103 108.682 17.466 C 109.028 17.828 109.517 18.019 110.018 17.989 C 111.155 17.989 111.945 17.328 111.945 15.859 L 111.945 10.212 Z M 132.826 14.203 L 132.826 20.554 L 129.723 20.554 L 129.723 14.473 C 129.723 13.439 129.226 12.777 128.234 12.777 C 127.199 12.777 126.621 13.501 126.621 14.721 L 126.621 20.554 L 123.518 20.554 L 123.518 14.473 C 123.518 13.439 123.021 12.777 122.028 12.777 C 120.994 12.777 120.415 13.501 120.415 14.721 L 120.415 20.554 L 117.313 20.554 L 117.313 10.212 L 120.42 10.212 L 120.42 11.159 C 121.074 10.302 122.117 9.835 123.192 9.919 C 124.272 9.866 125.301 10.384 125.902 11.283 C 126.601 10.343 127.733 9.828 128.901 9.919 C 131.275 9.923 132.826 11.618 132.826 14.203 Z M 135.454 10.148 C 136.726 10.148 137.757 9.117 137.757 7.845 C 137.757 6.573 136.726 5.542 135.454 5.542 C 134.182 5.542 133.151 6.573 133.151 7.845 C 133.151 9.117 134.182 10.148 135.454 10.148 Z M 34.956 5.455 L 38.06 5.455 L 38.06 20.554 L 34.956 20.554 Z M 39.817 15.383 C 39.81 13.165 41.14 11.163 43.187 10.309 C 45.233 9.456 47.592 9.92 49.163 11.486 C 50.733 13.051 51.205 15.409 50.358 17.458 C 49.511 19.507 47.512 20.844 45.295 20.844 C 43.841 20.859 42.441 20.289 41.411 19.262 C 40.381 18.235 39.806 16.837 39.817 15.383 Z M 47.677 15.383 C 47.643 14.078 46.563 13.045 45.259 13.068 C 43.954 13.091 42.911 14.161 42.922 15.465 C 42.933 16.77 43.993 17.823 45.298 17.824 C 45.946 17.842 46.572 17.589 47.024 17.125 C 47.477 16.662 47.715 16.03 47.681 15.383 Z M 63.147 10.209 L 63.147 20.034 C 63.147 23.509 60.437 24.977 57.687 24.977 C 55.713 25.126 53.822 24.16 52.785 22.474 L 55.432 20.943 C 55.87 21.827 56.809 22.346 57.791 22.247 C 58.41 22.331 59.034 22.13 59.488 21.7 C 59.941 21.27 60.175 20.657 60.124 20.034 L 60.124 19.083 C 59.387 19.984 58.267 20.482 57.104 20.427 C 54.266 20.339 52.011 18.013 52.011 15.173 C 52.011 12.334 54.266 10.008 57.104 9.92 C 58.267 9.864 59.387 10.363 60.124 11.264 L 60.124 10.209 Z M 60.128 15.173 C 60.17 14.151 59.586 13.206 58.654 12.786 C 57.722 12.366 56.627 12.554 55.889 13.262 C 55.151 13.97 54.918 15.056 55.299 16.005 C 55.681 16.954 56.6 17.576 57.623 17.576 C 58.282 17.622 58.93 17.387 59.407 16.93 C 59.884 16.473 60.146 15.836 60.128 15.176 Z M 64.904 15.376 C 64.897 13.158 66.228 11.155 68.274 10.302 C 70.321 9.449 72.68 9.913 74.25 11.479 C 75.82 13.044 76.292 15.402 75.445 17.451 C 74.598 19.5 72.6 20.837 70.382 20.837 C 68.929 20.852 67.531 20.283 66.501 19.258 C 65.471 18.232 64.895 16.836 64.904 15.383 Z M 72.764 15.376 C 72.732 14.069 71.651 13.033 70.344 13.055 C 69.037 13.077 67.992 14.149 68.003 15.456 C 68.015 16.764 69.078 17.817 70.386 17.817 C 71.031 17.833 71.655 17.581 72.106 17.119 C 72.557 16.657 72.796 16.028 72.764 15.383 Z" fill="rgb(0,26,73)"></path></svg>