<svg xmlns="http://www.w3.org/2000/svg" xmlns:xlink="http://www.w3.org/1999/xlink" viewBox="0 0 131 34"><path d="M 3.238 31.535 L 31.474 31.535 L 31.474 2.465 L 3.238 2.465 Z M 26.039 14.203 L 20.073 14.203 L 20.073 8.06 L 26.039 8.06 Z M 8.671 8.06 L 14.641 8.06 L 14.641 19.797 L 26.039 19.797 L 26.039 25.94 L 8.671 25.94 Z M 49.861 2.465 C 42.064 2.465 35.743 8.973 35.743 17 C 35.743 25.027 42.064 31.535 49.861 31.535 C 57.659 31.535 63.98 25.027 63.98 17 C 63.971 8.976 57.655 2.474 49.861 2.465 Z M 49.861 25.94 C 45.066 25.94 41.178 21.937 41.178 17 C 41.178 12.063 45.066 8.06 49.861 8.06 C 54.657 8.06 58.545 12.063 58.545 17 C 58.538 21.934 54.654 25.932 49.861 25.94 Z M 114.502 2.465 C 106.705 2.465 100.385 8.972 100.385 16.998 C 100.384 25.025 106.704 31.532 114.501 31.533 C 122.298 31.533 128.618 25.027 128.619 17 C 128.61 8.977 122.295 2.475 114.502 2.465 Z M 114.502 25.94 C 110.044 25.927 106.318 22.442 105.881 17.875 C 105.444 13.307 108.436 9.141 112.806 8.233 C 116.556 7.466 120.351 9.315 122.153 12.786 C 123.955 16.258 123.339 20.534 120.637 23.317 C 119.009 24.993 116.803 25.936 114.502 25.94 Z M 82.181 2.465 C 74.384 2.465 68.063 8.973 68.063 17 C 68.063 25.027 74.384 31.535 82.181 31.535 C 89.978 31.535 96.299 25.027 96.299 17 C 96.29 8.976 89.975 2.474 82.181 2.465 Z M 82.181 25.94 C 77.741 25.942 74.014 22.495 73.542 17.949 C 73.071 13.404 76.006 9.224 80.347 8.261 C 84.688 7.298 89.035 9.861 90.424 14.203 L 82.181 14.203 L 82.181 19.797 L 90.424 19.797 C 89.248 23.459 85.927 25.934 82.181 25.94 Z" fill="rgb(57,65,73)"></path></svg>